<svg xmlns="http://www.w3.org/2000/svg" version="1.1" xmlns:xlink="http://www.w3.org/1999/xlink" xmlns:svgjs="http://svgjs.dev/svgjs" width="2000" height="1161" viewBox="0 0 2000 1161"><g transform="matrix(1,0,0,1,-1.2121212121212466,-0.980565728194847)"><svg viewBox="0 0 396 230" data-background-color="#ffffff" preserveAspectRatio="xMidYMid meet" height="1161" width="2000" xmlns="http://www.w3.org/2000/svg" xmlns:xlink="http://www.w3.org/1999/xlink"><g id="tight-bounds" transform="matrix(1,0,0,1,0.2400000000000091,0.19425505381981623)"><svg viewBox="0 0 395.52 229.61148989236037" height="229.61148989236037" width="395.52"><g><svg viewBox="0 0 588.4795045376158 341.6304" height="229.61148989236037" width="395.52"><g transform="matrix(1,0,0,1,0,47.21520000000001)"><svg viewBox="0 0 357.6649504950495 247.2" height="247.2" width="357.6649504950495"><g id="textblocktransform"><svg viewBox="0 0 357.6649504950495 247.2" height="247.2" width="357.6649504950495" id="textblock"><g><svg viewBox="0 0 357.6649504950495 247.2" height="247.2" width="357.6649504950495"><g transform="matrix(1,0,0,1,0,0)"><svg width="357.6649504950495" viewBox="-0.65 -44.05 109.59 75.75" height="247.2" data-palette-color="#6c926d"><path d="M27.75-11.7L27.75-11.7Q27.75-6.4 23.38-2.83 19 0.75 12.2 0.75L12.2 0.75Q8.45 0.75 6.5-0.35L6.5-0.35Q6.3-0.45 6.05-0.45 5.8-0.45 4.2 0.1 2.6 0.65 0.98 0.65-0.65 0.65-0.65-0.3L-0.65-0.3Q-0.65-1.6 2.5-7.08 5.65-12.55 8.1-14.45L8.1-14.45Q9.15-15.25 10.15-15.25 11.15-15.25 11.15-14.7L11.15-14.7Q11.15-14.6 10.48-13.48 9.8-12.35 9.13-10.5 8.45-8.65 8.45-7.33 8.45-6 8.72-5.1 9-4.2 10.13-3.28 11.25-2.35 12.88-2.35 14.5-2.35 15.93-2.75 17.35-3.15 18.75-4 20.15-4.85 21.05-6.5 21.95-8.15 21.95-10.33 21.95-12.5 20.6-14.75 19.25-17 17.65-18.57 16.05-20.15 14.7-22.18 13.35-24.2 13.35-26.13 13.35-28.05 14.38-29.7 15.4-31.35 16.93-32.33 18.45-33.3 20.4-33.95L20.4-33.95Q23.7-35.05 26.25-35.05 28.8-35.05 30.03-34.83 31.25-34.6 31.88-34.4 32.5-34.2 32.65-34.2 32.8-34.2 33.05-34.35L33.05-34.35Q34.55-35.2 36.3-35.2 38.05-35.2 38.05-34.35L38.05-34.35Q38.05-32.95 34.73-28.08 31.4-23.2 29.75-23.2L29.75-23.2Q28.4-23.2 28.4-23.8L28.4-23.8Q28.4-23.9 28.75-24.5L28.75-24.5Q29.85-26.5 29.85-29.05L29.85-29.05Q29.85-30.45 28.65-31.23 27.45-32 26.18-32 24.9-32 23.58-31.6 22.25-31.2 20.93-30 19.6-28.8 19.6-27.13 19.6-25.45 20.88-23.63 22.15-21.8 23.68-20.28 25.2-18.75 26.48-16.43 27.75-14.1 27.75-11.7ZM48.8-18.5L48.8-18.5Q50.95-18.5 50.95-16 50.95-13.5 49.2-9.7L49.2-9.7Q46.65-4.35 43.4-0.45L43.4-0.45Q41.85 1.4 39.5 1.4L39.5 1.4Q38.75 1.4 38.75 1L38.75 1 38.95 0.45Q41.3-3 43.12-6.68 44.95-10.35 44.95-12L44.95-12Q44.95-12.3 44.77-12.5 44.6-12.7 44.2-12.75L44.2-12.75Q42.15-12.75 38.67-9.4 35.2-6.05 32.67-2.65 30.15 0.75 29.42 2.08 28.7 3.4 27.95 3.68 27.2 3.95 25.5 3.95 23.8 3.95 23.8 3.35L23.8 3.35Q23.8 3.15 24.27 2.4 24.75 1.65 27.87-4.35 31-10.35 34.47-16.57 37.95-22.8 42.07-29.3 46.2-35.8 50.32-39.93 54.45-44.05 57.5-44.05L57.5-44.05Q59.85-44.05 59.85-41.3L59.85-41.3Q59.85-36 55.02-29.95 50.2-23.9 46.2-22.05L46.2-22.05Q45.3-21.65 44.32-21.65 43.35-21.65 43.35-22.1L43.35-22.1 43.65-22.6Q48.55-26 51.42-30.45 54.3-34.9 54.3-36.7L54.3-36.7Q54.3-37.3 54.15-37.52 54-37.75 53.45-37.75L53.45-37.75Q51.65-37.75 47.57-31.9 43.5-26.05 40.25-19.85 37-13.65 37-12.3L37-12.3Q37-11.75 37.37-11.75 37.75-11.75 38.4-12.25L38.4-12.25Q39.15-12.95 40.32-14 41.5-15.05 44.27-16.78 47.05-18.5 48.8-18.5ZM52.7 0.65L52.7 0.65Q51.55 0.1 50.82-1.3 50.1-2.7 50.1-4.75L50.1-4.75Q50.1-7.95 52.17-11.45 54.25-14.95 58.02-17.45 61.8-19.95 66-19.95L66-19.95Q67.95-19.95 69.25-18.9 70.55-17.85 70.55-16.82 70.55-15.8 70.25-15.2 69.95-14.6 69.95-14.4L69.95-14.4Q69.95-13.8 70.9-13.8 71.85-13.8 72.35-14.05 72.85-14.3 72.95-14.3L72.95-14.3Q73.35-14.3 73.35-13.28 73.35-12.25 72.35-10.88 71.35-9.5 69.9-8.85L69.9-8.85Q69.7-8.45 69.35-7.73 69-7 67.7-5.23 66.4-3.45 64.92-2.08 63.45-0.7 61.02 0.43 58.6 1.55 56.6 1.55 54.6 1.55 52.7 0.65ZM63.85-7.95L63.85-7.95Q63.85-8.35 63.4-8.35L63.4-8.35Q62.75-8.35 61.92-8.05 61.1-7.75 61-7.75L61-7.75Q60.7-7.75 60.7-8.2L60.7-8.2Q60.7-10.15 62.1-11.55L62.1-11.55Q62.65-12.15 63.7-12.58 64.75-13 65.32-13.58 65.9-14.15 65.9-15.55L65.9-15.55Q65.9-17.25 64.1-17.25L64.1-17.25Q60.9-17.25 58-12.73 55.1-8.2 55.1-4.65L55.1-4.65Q55.1-3.45 55.92-2.6 56.75-1.75 57.9-1.75L57.9-1.75Q60.5-1.75 62.17-3.93 63.85-6.1 63.85-7.95ZM64.54 25.15L64.54 25.15Q66.69 25.15 71.32 18.23 75.94 11.3 79.54 4.4 83.14-2.5 83.14-3.23 83.14-3.95 82.74-3.95 82.34-3.95 81.39-3.18 80.44-2.4 79.37-1.45 78.29-0.5 76.62 0.28 74.94 1.05 73.29 1.05L73.29 1.05Q71.24 1.05 71.24-2L71.24-2Q71.24-4.45 72.59-7.53 73.94-10.6 76.29-13.48 78.64-16.35 82.44-18.3 86.24-20.25 90.59-20.25L90.59-20.25Q91.69-20.25 92.99-19.85L92.99-19.85Q95.59-19.05 95.59-16.95L95.59-16.95Q95.59-15.45 94.74-15.45L94.74-15.45Q94.49-15.45 93.89-15.8L93.89-15.8Q92.09-17 88.34-17 84.59-17 81.07-13.28 77.54-9.55 77.54-6L77.54-6Q77.54-4.75 78.59-4.75L78.59-4.75Q80.19-4.75 83.02-7.03 85.84-9.3 88.64-13.75L88.64-13.75Q88.79-14.45 90.94-14.45 93.09-14.45 93.09-13.7L93.09-13.7Q93.09-13.15 89.62-6.53 86.14 0.1 83.74 4.38 81.34 8.65 77.97 13.85 74.59 19.05 71.59 22.8 68.59 26.55 65.34 29.13 62.09 31.7 59.54 31.7L59.54 31.7Q57.44 31.7 57.44 28.2 57.44 24.7 59.49 20.43 61.54 16.15 64.42 12.58 67.29 9 70.54 6.5 73.79 4 75.99 4L75.99 4 76.14 4Q76.74 4 76.74 4.35 76.74 4.7 76.14 5L76.14 5Q74.24 5.95 71.32 9.22 68.39 12.5 66.02 16.75 63.64 21 63.64 23.9L63.64 23.9 63.64 23.95Q63.64 25.15 64.54 25.15ZM93.59 2.55L93.59 2.55Q92.89 2.55 92.04 1.68 91.19 0.8 91.19-0.45L91.19-0.45Q91.19-1.15 94.47-7.53 97.74-13.9 97.84-16.15L97.84-16.15Q97.84-16.85 98.74-17.45L98.74-17.45Q100.34-18.4 103.49-18.4L103.49-18.4Q104.09-18.4 104.77-18.18 105.44-17.95 105.44-17.55L105.44-17.55Q105.44-17.35 105.29-17.2L105.29-17.2Q103.39-14.8 99.74-8.55 96.09-2.3 94.24 1.6L94.24 1.6Q93.99 2.55 93.59 2.55ZM104.54-21.2L104.54-21.2Q102.34-21.2 102.24-22.95L102.24-22.95 102.24-23Q102.24-24.5 103.72-25.45 105.19-26.4 106.64-26.4L106.64-26.4Q108.84-26.4 108.94-24.65L108.94-24.65Q108.94-23.15 107.49-22.18 106.04-21.2 104.54-21.2Z" opacity="1" transform="matrix(1,0,0,1,0,0)" fill="#6c926d" class="wordmark-text-0" data-fill-palette-color="primary" id="text-0"></path></svg></g></svg></g></svg></g></svg></g><g transform="matrix(1,0,0,1,416.02293769504945,0)"><svg viewBox="0 0 172.45656684256627 341.6304" height="341.6304" width="172.45656684256627"><g><svg xmlns="http://www.w3.org/2000/svg" xmlns:xlink="http://www.w3.org/1999/xlink" xml:space="preserve" version="1.1" style="shape-rendering:geometricPrecision;text-rendering:geometricPrecision;image-rendering:optimizeQuality;" viewBox="91.96376990231457 19 149.03623009768543 295.23553573488647" x="0" y="0" fill-rule="evenodd" clip-rule="evenodd" height="341.6304" width="172.45656684256627" class="icon-icon-0" data-fill-palette-color="accent" id="icon-0"><g fill="#6c926d" data-fill-palette-color="accent"><path class="" d="M92 132c13-13 20-32 22-51l18-16-15-10c6-7 12-12 20-16 1-5 4-10 9-14 0 0 3 4 6 10l1 0c2-6 4-11 9-16 0 0 6 6 8 18 15 4 19 9 19 9l-7 18 12-13 21 28-11 13 16-9 9 34-12 7 12-2-10 51 19 12c-33 54-126 75-127 49-1-11 26-42 27-44-4-30-2-40-1-51l-15 9c0 0-3 7-7 9-4 2-24 5-23-25z m147 57c-1 21 3 32-13 40l-10 24c15-4 22 27 25 38-26 14-91 25-114 23l-32-23c17-26 9-15 36-26 0 0-17-9-20-23 19 20 98-8 128-53z" fill="#6c926d" data-fill-palette-color="accent"></path></g></svg></g></svg></g></svg></g><defs></defs></svg><rect width="395.52" height="229.61148989236037" fill="none" stroke="none" visibility="hidden"></rect></g></svg></g></svg>